<svg xmlns="http://www.w3.org/2000/svg" viewBox="0 0 64 64" role="img" aria-label="Voltabrew coffee icon">
  <defs>
    <linearGradient id="bg" x1="0" x2="1" y1="0" y2="1">
      <stop offset="0%" stop-color="#8a5d3a"/>
      <stop offset="100%" stop-color="#3a241b"/>
    </linearGradient>
  </defs>
  <rect width="64" height="64" rx="32" fill="url(#bg)"/>
  <path d="M20 25h20a7 7 0 0 1 0 14H20a7 7 0 0 1 0-14Z" fill="#f4e9dd" opacity="0.96"/>
  <path d="M40 28h4a7 7 0 0 1 0 14h-4" fill="none" stroke="#f4e9dd" stroke-width="3" stroke-linecap="round"/>
  <path d="M20 25l-2 18h24l-2-18" fill="none" stroke="#f4e9dd" stroke-width="3" stroke-linecap="round" stroke-linejoin="round"/>
  <path d="M25 19c1.5-3 4-4.5 7-4.5s5.5 1.5 7 4.5" fill="none" stroke="#f9d9b5" stroke-width="3" stroke-linecap="round"/>
  <path d="M28 15c0-2.5 1.5-4 4-4" fill="none" stroke="#f9d9b5" stroke-width="2.5" stroke-linecap="round"/>
  <path d="M35 15c0-2.5 1.5-4 4-4" fill="none" stroke="#f9d9b5" stroke-width="2.5" stroke-linecap="round"/>
</svg>
